<?xml version="1.0" encoding="UTF-8"?>
<svg width="1440px" height="400px" viewBox="0 0 1440 400" version="1.1" xmlns="http://www.w3.org/2000/svg">
    <g stroke="none" stroke-width="1" fill="none" fill-rule="evenodd">
        <rect fill="#F8F9FA" x="0" y="0" width="1440" height="400"/>
        <path d="M0,150 C240,200 480,100 720,150 C960,200 1200,100 1440,150 L1440,400 L0,400 Z" fill="#E3F2FD"/>
        <g transform="translate(100, 50)">
            <!-- Graduation Cap -->
            <path d="M50,100 L150,50 L250,100 L150,150 Z" fill="#1976D2"/>
            <rect x="145" y="100" width="10" height="80" fill="#1976D2"/>
            <circle cx="150" cy="180" r="15" fill="#1976D2"/>
            
            <!-- Books -->
            <g transform="translate(300, 80)">
                <rect x="0" y="0" width="100" height="120" rx="5" fill="#2196F3"/>
                <rect x="10" y="20" width="80" height="10" fill="#FFFFFF"/>
                <rect x="10" y="40" width="60" height="10" fill="#FFFFFF"/>
                
                <rect x="20" y="-20" width="100" height="120" rx="5" fill="#64B5F6"/>
                <rect x="30" y="0" width="80" height="10" fill="#FFFFFF"/>
                <rect x="30" y="20" width="60" height="10" fill="#FFFFFF"/>
            </g>
        </g>
    </g>
</svg>
